<svg width="406" height="128" viewBox="0 0 406 128" fill="none" xmlns="http://www.w3.org/2000/svg">
<rect width="128" height="128" rx="24" fill="#22C55E"/>
<path d="M31.9943 72.0013C31.2373 72.0039 30.495 71.7916 29.8538 71.3891C29.2125 70.9866 28.6987 70.4105 28.3719 69.7275C28.0451 69.0446 27.9188 68.283 28.0076 67.5312C28.0965 66.7793 28.3968 66.0681 28.8738 65.4802L68.4808 24.673C68.7779 24.33 69.1827 24.0983 69.6289 24.0158C70.0751 23.9333 70.536 24.0049 70.9361 24.2189C71.3362 24.4329 71.6517 24.7766 71.8307 25.1935C72.0097 25.6104 72.0417 26.0758 71.9214 26.5133L64.24 50.5975C64.0135 51.2037 63.9375 51.8558 64.0183 52.4979C64.0992 53.14 64.3347 53.7528 64.7045 54.2839C65.0743 54.815 65.5674 55.2484 66.1415 55.5471C66.7156 55.8457 67.3536 56.0006 68.0007 55.9985H96.0056C96.7627 55.9959 97.505 56.2082 98.1462 56.6107C98.7874 57.0132 99.3013 57.5894 99.6281 58.2723C99.9549 58.9552 100.081 59.7168 99.9923 60.4686C99.9035 61.2205 99.6031 61.9317 99.1262 62.5196L59.5192 103.327C59.2221 103.67 58.8172 103.902 58.3711 103.984C57.9249 104.067 57.4639 103.995 57.0638 103.781C56.6637 103.567 56.3483 103.223 56.1693 102.806C55.9902 102.389 55.9583 101.924 56.0786 101.487L63.7599 77.4023C63.9864 76.7961 64.0625 76.144 63.9816 75.5019C63.9007 74.8598 63.6653 74.247 63.2955 73.7159C62.9257 73.1848 62.4326 72.7514 61.8585 72.4528C61.2844 72.1541 60.6464 71.9992 59.9993 72.0013H31.9943Z" stroke="white" stroke-width="8" stroke-linecap="round" stroke-linejoin="round"/>
<path d="M167.808 81.5L157.872 46.94H164.208L172.656 78.668H170.832L178.656 46.94H185.856L193.584 78.668H191.808L200.256 46.94H206.304L196.368 81.5H189.264L181.392 50.492H182.88L174.912 81.5H167.808ZM223.324 81.5C223.164 80.86 223.036 80.156 222.94 79.388C222.876 78.62 222.844 77.692 222.844 76.604H222.652V64.988C222.652 63.708 222.284 62.748 221.548 62.108C220.844 61.436 219.756 61.1 218.284 61.1C216.844 61.1 215.692 61.372 214.828 61.916C213.996 62.428 213.484 63.18 213.292 64.172H207.484C207.74 61.9 208.828 60.06 210.748 58.652C212.668 57.244 215.244 56.54 218.476 56.54C221.836 56.54 224.38 57.308 226.108 58.844C227.836 60.348 228.7 62.572 228.7 65.516V76.604C228.7 77.372 228.748 78.156 228.844 78.956C228.972 79.756 229.148 80.604 229.372 81.5H223.324ZM214.828 81.98C212.364 81.98 210.396 81.372 208.924 80.156C207.484 78.908 206.764 77.244 206.764 75.164C206.764 72.924 207.58 71.148 209.212 69.836C210.844 68.524 213.148 67.644 216.124 67.196L223.756 66.044V69.884L217.132 70.892C215.692 71.116 214.604 71.516 213.868 72.092C213.164 72.668 212.812 73.468 212.812 74.492C212.812 75.42 213.148 76.14 213.82 76.652C214.492 77.132 215.42 77.372 216.604 77.372C218.332 77.372 219.772 76.94 220.924 76.076C222.076 75.212 222.652 74.156 222.652 72.908L223.324 76.604C222.684 78.364 221.628 79.708 220.156 80.636C218.716 81.532 216.94 81.98 214.828 81.98ZM244.505 81.98C241.497 81.98 239.273 81.276 237.833 79.868C236.425 78.428 235.721 76.284 235.721 73.436V51.452L241.817 49.196V73.58C241.817 74.764 242.137 75.644 242.777 76.22C243.417 76.796 244.425 77.084 245.801 77.084C246.345 77.084 246.825 77.052 247.241 76.988C247.689 76.892 248.105 76.78 248.489 76.652V81.356C248.105 81.548 247.561 81.692 246.857 81.788C246.153 81.916 245.369 81.98 244.505 81.98ZM231.017 61.772V57.02H248.489V61.772H231.017ZM264.333 81.98C261.325 81.98 259.101 81.276 257.661 79.868C256.253 78.428 255.549 76.284 255.549 73.436V51.452L261.645 49.196V73.58C261.645 74.764 261.965 75.644 262.605 76.22C263.245 76.796 264.253 77.084 265.629 77.084C266.173 77.084 266.653 77.052 267.069 76.988C267.517 76.892 267.933 76.78 268.317 76.652V81.356C267.933 81.548 267.389 81.692 266.685 81.788C265.981 81.916 265.197 81.98 264.333 81.98ZM250.845 61.772V57.02H268.317V61.772H250.845ZM281.967 81.98C278.575 81.98 275.871 81.276 273.855 79.868C271.839 78.428 270.735 76.444 270.543 73.916H276.063C276.223 75.164 276.815 76.108 277.839 76.748C278.863 77.388 280.239 77.708 281.967 77.708C283.535 77.708 284.703 77.468 285.471 76.988C286.271 76.476 286.671 75.756 286.671 74.828C286.671 74.156 286.447 73.612 285.999 73.196C285.551 72.748 284.703 72.38 283.455 72.092L279.519 71.18C276.831 70.604 274.831 69.708 273.519 68.492C272.239 67.244 271.599 65.692 271.599 63.836C271.599 61.564 272.463 59.788 274.191 58.508C275.951 57.196 278.367 56.54 281.439 56.54C284.479 56.54 286.911 57.196 288.735 58.508C290.591 59.788 291.615 61.564 291.807 63.836H286.287C286.127 62.844 285.615 62.092 284.751 61.58C283.919 61.068 282.767 60.812 281.295 60.812C279.919 60.812 278.879 61.036 278.175 61.484C277.471 61.9 277.119 62.524 277.119 63.356C277.119 63.996 277.391 64.54 277.935 64.988C278.479 65.404 279.391 65.772 280.671 66.092L284.895 67.052C287.295 67.596 289.103 68.54 290.319 69.884C291.567 71.228 292.191 72.812 292.191 74.636C292.191 76.972 291.295 78.78 289.503 80.06C287.711 81.34 285.199 81.98 281.967 81.98ZM296.085 81.5V46.94H305.781L316.341 80.252H312.933L323.493 46.94H333.237V81.5H327.093V49.004H328.101L317.829 81.5H311.157L300.981 49.292H301.941V81.5H296.085ZM339.45 81.5V57.02H345.498V81.5H339.45ZM339.162 52.988V46.316H345.738V52.988H339.162ZM351.919 81.5V57.02H357.823V62.78H357.967V81.5H351.919ZM369.103 81.5V66.044C369.103 64.54 368.719 63.404 367.951 62.636C367.183 61.868 366.063 61.484 364.591 61.484C363.311 61.484 362.159 61.772 361.135 62.348C360.143 62.924 359.359 63.724 358.783 64.748C358.239 65.772 357.967 66.956 357.967 68.3L357.343 62.444C358.175 60.652 359.391 59.228 360.991 58.172C362.591 57.084 364.511 56.54 366.751 56.54C369.407 56.54 371.471 57.292 372.943 58.796C374.447 60.3 375.199 62.3 375.199 64.796V81.5H369.103ZM392.302 81.98C389.71 81.98 387.438 81.436 385.486 80.348C383.566 79.26 382.062 77.756 380.974 75.836C379.918 73.916 379.39 71.708 379.39 69.212C379.39 66.716 379.918 64.524 380.974 62.636C382.062 60.716 383.566 59.228 385.486 58.172C387.406 57.084 389.646 56.54 392.206 56.54C394.638 56.54 396.75 57.052 398.542 58.076C400.334 59.068 401.726 60.476 402.718 62.3C403.71 64.124 404.206 66.252 404.206 68.684C404.206 69.132 404.19 69.548 404.158 69.932C404.126 70.316 404.078 70.7 404.014 71.084H383.134V66.86H399.358L398.11 68.012C398.11 65.708 397.582 63.98 396.526 62.828C395.47 61.676 393.998 61.1 392.11 61.1C390.062 61.1 388.43 61.804 387.214 63.212C386.03 64.62 385.438 66.652 385.438 69.308C385.438 71.932 386.03 73.948 387.214 75.356C388.43 76.732 390.142 77.42 392.35 77.42C393.63 77.42 394.75 77.18 395.71 76.7C396.67 76.22 397.374 75.484 397.822 74.492H403.534C402.734 76.796 401.374 78.62 399.454 79.964C397.566 81.308 395.182 81.98 392.302 81.98Z" fill="black"/>
</svg>
